<svg width="249" height="384" viewBox="0 0 249 384" fill="none" xmlns="http://www.w3.org/2000/svg">
<g clip-path="url(#clip0_490_2154)">
<path d="M385.079 -207.012L331.285 -182.275L479.377 -176.168L258.414 -57.3812L403.836 -57.9092L180.249 67.7075L372.579 66.7318L412.005 40.146L276.46 41.4546L506.578 -83.5538L357.134 -82.1418L572.208 -194.431L385.079 -207.012Z" fill="#98FDF1"/>
<path d="M226.102 41.8438L180.022 67.8017L332.006 71.0192L110.564 189.519L256.301 188.992L32.2295 314.294L224.976 313.309L264.499 286.801L128.649 288.107L359.265 163.401L209.498 164.809L420.881 40.401L226.102 41.8438Z" fill="#98FDF1"/>
<path d="M420.021 -4.49462L374.04 21.4634L525.685 24.6809L304.732 143.181L450.143 142.654L226.555 267.955L418.898 266.97L458.324 240.463L322.778 241.768L552.886 117.062L403.453 118.471L614.38 -5.93738L420.021 -4.49462Z" fill="#98FDF1"/>
<path d="M275.311 240.441L229.319 266.479L380.975 269.706L160.022 388.557L305.433 388.04L81.8452 513.714L274.188 512.738L313.614 486.149L178.068 487.458L408.176 362.371L258.743 363.783L469.67 238.994L275.311 240.441Z" fill="#98FDF1"/>
<path d="M83.4655 286.775L37.4737 312.733L189.13 315.95L-31.8232 434.45L113.588 433.923L-110 559.225L82.3426 558.24L121.769 531.732L-13.7771 533.038L216.33 408.332L66.8974 409.74L277.825 285.332L83.4655 286.775Z" fill="#98FDF1"/>
<path d="M400.163 312.431L354.183 338.479L505.839 341.706L284.874 460.552L430.297 460.024L206.709 585.704L399.052 584.727L438.478 558.128L302.921 559.438L533.04 434.366L383.595 435.779L594.534 310.984L400.163 312.431Z" fill="#98FDF1"/>
</g>
<defs>
<clipPath id="clip0_490_2154">
<rect width="249" height="384" fill="white"/>
</clipPath>
</defs>
</svg>
