<svg width="375" height="438" viewBox="0 0 375 438" fill="none" xmlns="http://www.w3.org/2000/svg">
<g clip-path="url(#clip0_591_2068)">
<path d="M-168.08 570.444L-63.4912 490.962L-172.068 463.617L-64.5871 387.975L-105.947 376.771L-34.672 328.391L-10.486 401.999L-46.4216 392.422L-112.987 454.33L13.1173 487.114L-168.08 570.444Z" fill="#98FDF1"/>
<path d="M190.693 168.821L294.853 89.3382L186.728 61.9937L293.754 -13.6484L252.567 -24.8524L323.545 -73.2327L347.63 0.375465L311.851 -9.20132L245.556 52.7065L371.142 85.4909L190.693 168.821Z" fill="#98FDF1"/>
<path d="M23.2549 309.89L127.414 230.154L19.2902 202.723L126.316 126.84L85.129 115.6L156.114 67.0657L180.192 140.908L144.413 131.301L78.1182 193.406L203.704 226.295L23.2549 309.89Z" fill="#98FDF1"/>
<path d="M170.638 396.998L274.787 317.769L166.667 290.512L273.696 215.11L232.51 203.942L303.485 155.716L327.569 229.09L291.785 219.543L225.499 281.254L351.08 313.934L170.638 396.998Z" fill="#98FDF1"/>
<path d="M7.05113 542.693L111.211 463.459L3.08643 436.202L110.112 360.803L68.9252 349.635L139.91 301.41L163.988 374.789L128.202 365.236L61.9145 426.945L187.5 459.624L7.05113 542.693Z" fill="#98FDF1"/>
<path d="M152.153 635.968L257.177 556.232L148.148 528.801L256.077 452.918L214.545 441.678L286.117 393.144L310.403 466.986L274.318 457.372L207.476 519.484L334.105 552.366L152.153 635.968Z" fill="#98FDF1"/>
</g>
<defs>
<clipPath id="clip0_591_2068">
<rect width="375" height="438" fill="white"/>
</clipPath>
</defs>
</svg>
