<svg width="702" height="583" viewBox="0 0 702 583" fill="none" xmlns="http://www.w3.org/2000/svg">
<g clip-path="url(#clip0_672_1148)">
<path d="M356.977 316.032L551.964 167.241L349.556 116.052L549.908 -25.5499L472.806 -46.5237L605.676 -137.092L650.764 0.70282L583.785 -17.2249L459.682 98.6664L694.778 160.039L356.977 316.032Z" fill="#38FFEF"/>
<path d="M43.533 580.114L238.52 430.849L36.1111 379.497L236.464 237.444L159.361 216.403L292.245 125.547L337.319 263.78L270.341 245.796L146.237 362.056L381.333 423.624L43.533 580.114Z" fill="#38FFEF"/>
<path d="M319.435 743.181L514.401 594.863L312 543.838L512.358 402.686L435.259 381.78L568.124 291.5L613.209 428.856L546.221 410.985L422.135 526.507L657.222 587.684L319.435 743.181Z" fill="#38FFEF"/>
<path d="M13.1998 1015.92L208.186 867.595L5.77783 816.571L206.131 675.423L129.028 654.517L261.911 564.24L306.986 701.605L239.995 683.722L115.904 799.241L351 860.416L13.1998 1015.92Z" fill="#38FFEF"/>
</g>
<defs>
<clipPath id="clip0_672_1148">
<rect width="702" height="583" fill="white"/>
</clipPath>
</defs>
</svg>
