<svg width="172" height="126" viewBox="0 0 172 126" fill="none" xmlns="http://www.w3.org/2000/svg">
<path d="M163.625 -121.742L131.967 -107.194L219.121 -103.603L89.0805 -33.7457L174.664 -34.0562L43.0791 39.8177L156.269 39.2439L179.472 23.609L99.7008 24.3786L235.129 -49.1374L147.179 -48.3071L273.754 -114.343L163.625 -121.742Z" fill="#98FDF1"/>
<path d="M70.0638 24.6077L42.9452 39.8733L132.39 41.7655L2.06784 111.454L87.8365 111.144L-44.0332 184.833L69.4016 184.253L92.6615 168.665L12.7112 169.432L148.433 96.0941L60.2922 96.9224L184.695 23.7593L70.0638 24.6077Z" fill="#98FDF1"/>
<path d="M277.502 -148.993L245.844 -134.451L332.991 -130.86L202.958 -60.9997L288.534 -61.3102L156.956 12.5668L270.146 11.9929L293.349 -3.6358L213.578 -2.86619L348.999 -76.3921L261.056 -75.5617L387.631 -141.601L277.502 -148.993Z" fill="#98FDF1"/>
<path d="M184.189 -2.64372L157.129 12.6219L246.374 14.5141L116.339 84.2025L201.916 83.8928L70.3311 157.581L183.528 157.002L206.731 141.413L126.96 142.181L262.382 68.8427L174.438 69.6709L298.572 -3.49219L184.189 -2.64372Z" fill="#98FDF1"/>
<path d="M256.457 39.6958L229.332 55.0142L318.775 56.9121L188.463 126.804L274.222 126.494L142.356 200.405L255.795 199.824L279.047 184.188L199.099 184.958L334.817 111.405L246.685 112.236L371.084 38.8447L256.457 39.6958Z" fill="#98FDF1"/>
</svg>
