<svg width="326" height="125" viewBox="0 0 326 125" fill="none" xmlns="http://www.w3.org/2000/svg">
<path d="M226.626 -121.742L194.967 -107.194L282.121 -103.602L152.081 -33.7453L237.664 -34.0558L106.079 39.8181L219.269 39.2442L242.472 23.6094L162.701 24.379L298.129 -49.1371L210.179 -48.3067L336.754 -114.343L226.626 -121.742Z" fill="#40FFF2"/>
<path d="M133.065 24.6079L105.946 39.8735L195.391 41.7657L65.0686 111.454L150.837 111.144L18.9676 184.833L132.402 184.254L155.662 168.665L75.712 169.432L211.434 96.0942L123.293 96.9225L247.695 23.7594L133.065 24.6079Z" fill="#40FFF2"/>
<path d="M340.503 -148.993L308.844 -134.451L395.992 -130.86L265.958 -60.9994L351.535 -61.31L219.957 12.567L333.146 11.9932L356.349 -3.63556L276.578 -2.86595L412 -76.3919L324.056 -75.5615L450.631 -141.6L340.503 -148.993Z" fill="#40FFF2"/>
<path d="M247.189 -2.64323L220.129 12.6224L309.374 14.5146L179.34 84.203L264.917 83.8933L133.332 157.582L246.528 157.003L269.731 141.414L189.96 142.181L325.382 68.8431L237.439 69.6714L361.573 -3.4917L247.189 -2.64323Z" fill="#40FFF2"/>
<path d="M413.018 -106.17L381.36 -91.6285L468.505 -88.0371L338.475 -18.1798L424.049 -18.4836L292.468 55.3903L405.661 54.8097L428.863 39.1816L349.095 39.9512L484.513 -33.5717L396.572 -32.7413L523.143 -98.7776L413.018 -106.17Z" fill="#40FFF2"/>
<path d="M319.457 39.6958L292.333 55.0143L381.775 56.9122L251.463 126.804L337.223 126.494L205.357 200.405L318.795 199.824L342.048 184.188L262.1 184.958L397.817 111.405L309.686 112.236L434.085 38.8448L319.457 39.6958Z" fill="#40FFF2"/>
<path d="M433.571 12.4515L406.511 27.7633L495.763 29.6612L365.729 99.5534L451.306 99.2427L319.721 173.154L432.917 172.58L456.12 156.937L376.342 157.707L511.771 84.1539L423.821 84.9847L547.962 11.5938L433.571 12.4515Z" fill="#40FFF2"/>
</svg>
