<svg width="289" height="125" viewBox="0 0 289 125" fill="none" xmlns="http://www.w3.org/2000/svg">
<g clip-path="url(#clip0_1048_1466)">
<path d="M67.7937 -179L-75 469.99L-61.2906 472.977L81.5031 -176.013L67.7937 -179Z" fill="white" fill-opacity="0.11"/>
<path d="M92.6531 -173.588L-50.1406 475.402L-36.4312 478.389L106.362 -170.601L92.6531 -173.588Z" fill="white" fill-opacity="0.11"/>
<path d="M117.514 -168.176L-25.2793 480.814L-11.5699 483.801L131.224 -165.189L117.514 -168.176Z" fill="white" fill-opacity="0.11"/>
<path d="M142.373 -162.754L-0.420898 486.236L13.2885 489.223L156.082 -159.767L142.373 -162.754Z" fill="white" fill-opacity="0.11"/>
<path d="M167.242 -157.339L24.4482 491.65L38.1577 494.637L180.951 -154.352L167.242 -157.339Z" fill="white" fill-opacity="0.11"/>
<path d="M192.102 -151.918L49.3086 497.072L63.018 500.059L205.812 -148.931L192.102 -151.918Z" fill="white" fill-opacity="0.11"/>
<path d="M216.971 -146.506L74.1777 502.484L87.8871 505.471L230.681 -143.519L216.971 -146.506Z" fill="white" fill-opacity="0.11"/>
<path d="M241.83 -141.084L99.0361 507.906L112.746 510.893L255.539 -138.097L241.83 -141.084Z" fill="white" fill-opacity="0.11"/>
<path d="M266.689 -135.662L123.896 513.328L137.605 516.315L280.399 -132.675L266.689 -135.662Z" fill="white" fill-opacity="0.11"/>
<path d="M291.548 -130.25L148.754 518.74L162.463 521.727L305.257 -127.263L291.548 -130.25Z" fill="white" fill-opacity="0.11"/>
<path d="M316.41 -124.838L173.616 524.152L187.326 527.139L330.119 -121.851L316.41 -124.838Z" fill="white" fill-opacity="0.11"/>
<path d="M341.268 -119.416L198.475 529.574L212.184 532.561L354.978 -116.429L341.268 -119.416Z" fill="white" fill-opacity="0.11"/>
<path d="M366.128 -114.004L223.334 534.986L237.043 537.973L379.837 -111.017L366.128 -114.004Z" fill="white" fill-opacity="0.11"/>
<path d="M390.987 -108.582L248.193 540.408L261.903 543.395L404.696 -105.595L390.987 -108.582Z" fill="white" fill-opacity="0.11"/>
<path d="M415.846 -103.16L273.053 545.83L286.762 548.817L429.556 -100.173L415.846 -103.16Z" fill="white" fill-opacity="0.11"/>
</g>
<defs>
<clipPath id="clip0_1048_1466">
<path d="M0 0H289V85C289 107.091 271.091 125 249 125H0V0Z" fill="white"/>
</clipPath>
</defs>
</svg>
