<svg width="986" height="125" viewBox="0 0 986 125" fill="none" xmlns="http://www.w3.org/2000/svg">
<path d="M618.782 -73.9175L475.988 575.072L489.698 578.059L632.491 -70.9305L618.782 -73.9175Z" fill="white" fill-opacity="0.11"/>
<path d="M643.651 -68.4954L500.857 580.494L514.567 583.481L657.36 -65.5084L643.651 -68.4954Z" fill="white" fill-opacity="0.11"/>
<path d="M668.51 -63.0738L525.716 585.916L539.426 588.903L682.22 -60.0868L668.51 -63.0738Z" fill="white" fill-opacity="0.11"/>
<path d="M693.369 -57.6616L550.575 591.328L564.285 594.315L707.078 -54.6746L693.369 -57.6616Z" fill="white" fill-opacity="0.11"/>
<path d="M718.239 -52.2376L575.445 596.752L589.154 599.739L731.948 -49.2505L718.239 -52.2376Z" fill="white" fill-opacity="0.11"/>
<path d="M743.099 -46.8256L600.306 602.164L614.015 605.151L756.809 -43.8386L743.099 -46.8256Z" fill="white" fill-opacity="0.11"/>
<path d="M767.959 -41.4134L625.165 607.576L638.874 610.563L781.668 -38.4264L767.959 -41.4134Z" fill="white" fill-opacity="0.11"/>
<path d="M792.818 -35.9917L650.024 612.998L663.734 615.985L806.527 -33.0047L792.818 -35.9917Z" fill="white" fill-opacity="0.11"/>
<path d="M817.677 -30.5796L674.884 618.41L688.593 621.397L831.387 -27.5926L817.677 -30.5796Z" fill="white" fill-opacity="0.11"/>
<path d="M842.536 -25.1577L699.743 623.832L713.452 626.819L856.246 -22.1707L842.536 -25.1577Z" fill="white" fill-opacity="0.11"/>
<path d="M867.395 -19.7361L724.602 629.254L738.311 632.241L881.105 -16.7491L867.395 -19.7361Z" fill="white" fill-opacity="0.11"/>
<path d="M892.255 -14.324L749.461 634.666L763.17 637.653L905.964 -11.337L892.255 -14.324Z" fill="white" fill-opacity="0.11"/>
<path d="M917.114 -8.90202L774.32 640.088L788.029 643.075L930.823 -5.91501L917.114 -8.90202Z" fill="white" fill-opacity="0.11"/>
<path d="M941.983 -3.47968L799.189 645.51L812.899 648.497L955.692 -0.492676L941.983 -3.47968Z" fill="white" fill-opacity="0.11"/>
<path d="M966.844 1.92218L824.05 650.912L837.76 653.899L980.553 4.90918L966.844 1.92218Z" fill="white" fill-opacity="0.11"/>
<path d="M991.713 7.34609L848.919 656.336L862.629 659.323L1005.42 10.3331L991.713 7.34609Z" fill="white" fill-opacity="0.11"/>
<path d="M1016.57 12.768L873.779 661.758L887.488 664.745L1030.28 15.755L1016.57 12.768Z" fill="white" fill-opacity="0.11"/>
<path d="M1041.43 18.1799L898.638 667.17L912.347 670.157L1055.14 21.1669L1041.43 18.1799Z" fill="white" fill-opacity="0.11"/>
<path d="M1066.29 23.6021L923.497 672.592L937.206 675.579L1080 26.5891L1066.29 23.6021Z" fill="white" fill-opacity="0.11"/>
<path d="M143.584 -177.456L0.790039 471.534L14.4994 474.521L157.293 -174.469L143.584 -177.456Z" fill="white" fill-opacity="0.11"/>
<path d="M168.443 -172.044L25.6493 476.946L39.3587 479.933L182.152 -169.057L168.443 -172.044Z" fill="white" fill-opacity="0.11"/>
<path d="M193.304 -166.632L50.5104 482.358L64.2198 485.345L207.013 -163.645L193.304 -166.632Z" fill="white" fill-opacity="0.11"/>
<path d="M218.163 -161.21L75.3696 487.78L89.079 490.767L231.873 -158.223L218.163 -161.21Z" fill="white" fill-opacity="0.11"/>
<path d="M243.033 -155.795L100.239 493.194L113.948 496.181L256.742 -152.808L243.033 -155.795Z" fill="white" fill-opacity="0.11"/>
<path d="M267.892 -150.374L125.098 498.616L138.807 501.603L281.601 -147.387L267.892 -150.374Z" fill="white" fill-opacity="0.11"/>
<path d="M292.761 -144.962L149.967 504.028L163.677 507.015L306.47 -141.975L292.761 -144.962Z" fill="white" fill-opacity="0.11"/>
<path d="M317.62 -139.54L174.826 509.45L188.536 512.437L331.329 -136.553L317.62 -139.54Z" fill="white" fill-opacity="0.11"/>
<path d="M342.479 -134.118L199.685 514.872L213.395 517.859L356.189 -131.131L342.479 -134.118Z" fill="white" fill-opacity="0.11"/>
<path d="M367.338 -128.706L224.544 520.284L238.254 523.271L381.047 -125.719L367.338 -128.706Z" fill="white" fill-opacity="0.11"/>
<path d="M392.199 -123.294L249.406 525.696L263.115 528.683L405.909 -120.307L392.199 -123.294Z" fill="white" fill-opacity="0.11"/>
<path d="M417.059 -117.872L274.265 531.118L287.975 534.105L430.768 -114.885L417.059 -117.872Z" fill="white" fill-opacity="0.11"/>
<path d="M441.918 -112.46L299.124 536.53L312.834 539.517L455.627 -109.473L441.918 -112.46Z" fill="white" fill-opacity="0.11"/>
<path d="M466.777 -107.038L323.983 541.952L337.693 544.939L480.486 -104.051L466.777 -107.038Z" fill="white" fill-opacity="0.11"/>
<path d="M491.636 -101.616L348.843 547.374L362.552 550.361L505.346 -98.6289L491.636 -101.616Z" fill="white" fill-opacity="0.11"/>
<path d="M516.505 -96.2018L373.711 552.788L387.421 555.775L530.215 -93.2148L516.505 -96.2018Z" fill="white" fill-opacity="0.11"/>
<path d="M541.365 -90.7802L398.571 558.21L412.28 561.197L555.074 -87.7932L541.365 -90.7802Z" fill="white" fill-opacity="0.11"/>
<path d="M566.223 -85.3682L423.43 563.622L437.139 566.609L579.933 -82.3812L566.223 -85.3682Z" fill="white" fill-opacity="0.11"/>
<path d="M591.095 -79.9558L448.301 569.034L462.011 572.021L604.804 -76.9687L591.095 -79.9558Z" fill="white" fill-opacity="0.11"/>
</svg>
