<svg width="782" height="359" viewBox="0 0 782 359" fill="none" xmlns="http://www.w3.org/2000/svg">
<g clip-path="url(#clip0_400_1428)">
<path d="M226.593 -143.659L206.748 -148.003L0.048121 795.843L19.8931 800.187L226.593 -143.659Z" fill="url(#paint0_linear_400_1428)"/>
<path d="M262.573 -135.783L242.728 -140.127L36.0272 803.718L55.8722 808.062L262.573 -135.783Z" fill="url(#paint1_linear_400_1428)"/>
<path d="M298.566 -127.908L278.721 -132.252L72.0208 811.594L91.8657 815.938L298.566 -127.908Z" fill="url(#paint2_linear_400_1428)"/>
<path d="M334.545 -120.032L314.7 -124.376L108 819.47L127.845 823.814L334.545 -120.032Z" fill="url(#paint3_linear_400_1428)"/>
<path d="M370.539 -112.142L350.694 -116.486L143.993 827.36L163.838 831.704L370.539 -112.142Z" fill="url(#paint4_linear_400_1428)"/>
<path d="M406.547 -104.263L386.702 -108.607L180.001 835.239L199.846 839.583L406.547 -104.263Z" fill="url(#paint5_linear_400_1428)"/>
<path d="M442.522 -96.3734L422.677 -100.718L215.977 843.128L235.822 847.472L442.522 -96.3734Z" fill="url(#paint6_linear_400_1428)"/>
<path d="M478.516 -88.4977L458.671 -92.8418L251.971 851.004L271.816 855.348L478.516 -88.4977Z" fill="url(#paint7_linear_400_1428)"/>
<path d="M514.495 -80.6221L494.65 -84.9662L287.95 858.88L307.795 863.224L514.495 -80.6221Z" fill="url(#paint8_linear_400_1428)"/>
<path d="M550.489 -72.7464L530.644 -77.0905L323.943 866.755L343.788 871.099L550.489 -72.7464Z" fill="url(#paint9_linear_400_1428)"/>
<path d="M586.468 -64.8708L566.623 -69.2148L359.923 874.631L379.768 878.975L586.468 -64.8708Z" fill="url(#paint10_linear_400_1428)"/>
<path d="M622.461 -56.9953L602.616 -61.3394L395.916 882.507L415.761 886.851L622.461 -56.9953Z" fill="url(#paint11_linear_400_1428)"/>
<path d="M658.455 -49.1195L638.61 -53.4636L431.91 890.382L451.755 894.726L658.455 -49.1195Z" fill="url(#paint12_linear_400_1428)"/>
<path d="M694.448 -41.2407L674.603 -45.5848L467.903 898.261L487.748 902.605L694.448 -41.2407Z" fill="url(#paint13_linear_400_1428)"/>
<path d="M730.442 -33.3651L710.597 -37.7092L503.897 906.137L523.742 910.481L730.442 -33.3651Z" fill="url(#paint14_linear_400_1428)"/>
<path d="M766.421 -25.4894L746.576 -29.8335L539.876 914.012L559.721 918.356L766.421 -25.4894Z" fill="url(#paint15_linear_400_1428)"/>
<path d="M802.415 -17.6138L782.57 -21.9579L575.869 921.888L595.714 926.232L802.415 -17.6138Z" fill="url(#paint16_linear_400_1428)"/>
<path d="M838.394 -9.73806L818.549 -14.0822L611.848 929.764L631.693 934.108L838.394 -9.73806Z" fill="url(#paint17_linear_400_1428)"/>
<path d="M874.384 -1.84841L854.539 -6.1925L647.839 937.653L667.684 941.997L874.384 -1.84841Z" fill="url(#paint18_linear_400_1428)"/>
</g>
<defs>
<linearGradient id="paint0_linear_400_1428" x1="113.297" y1="800.203" x2="113.297" y2="-147.983" gradientUnits="userSpaceOnUse">
<stop stop-color="white"/>
<stop offset="1" stop-color="#38FFEF"/>
</linearGradient>
<linearGradient id="paint1_linear_400_1428" x1="149.269" y1="808.092" x2="149.269" y2="-140.094" gradientUnits="userSpaceOnUse">
<stop stop-color="white"/>
<stop offset="1" stop-color="#38FFEF"/>
</linearGradient>
<linearGradient id="paint2_linear_400_1428" x1="185.259" y1="815.967" x2="185.259" y2="-132.219" gradientUnits="userSpaceOnUse">
<stop stop-color="white"/>
<stop offset="1" stop-color="#38FFEF"/>
</linearGradient>
<linearGradient id="paint3_linear_400_1428" x1="221.249" y1="823.845" x2="221.249" y2="-124.341" gradientUnits="userSpaceOnUse">
<stop stop-color="white"/>
<stop offset="1" stop-color="#38FFEF"/>
</linearGradient>
<linearGradient id="paint4_linear_400_1428" x1="257.239" y1="831.735" x2="257.239" y2="-116.451" gradientUnits="userSpaceOnUse">
<stop stop-color="white"/>
<stop offset="1" stop-color="#38FFEF"/>
</linearGradient>
<linearGradient id="paint5_linear_400_1428" x1="293.243" y1="839.61" x2="293.243" y2="-108.576" gradientUnits="userSpaceOnUse">
<stop stop-color="white"/>
<stop offset="1" stop-color="#38FFEF"/>
</linearGradient>
<linearGradient id="paint6_linear_400_1428" x1="329.219" y1="847.485" x2="329.219" y2="-100.687" gradientUnits="userSpaceOnUse">
<stop stop-color="white"/>
<stop offset="1" stop-color="#38FFEF"/>
</linearGradient>
<linearGradient id="paint7_linear_400_1428" x1="365.223" y1="855.377" x2="365.223" y2="-92.8088" gradientUnits="userSpaceOnUse">
<stop stop-color="white"/>
<stop offset="1" stop-color="#38FFEF"/>
</linearGradient>
<linearGradient id="paint8_linear_400_1428" x1="401.199" y1="863.252" x2="401.199" y2="-84.934" gradientUnits="userSpaceOnUse">
<stop stop-color="white"/>
<stop offset="1" stop-color="#38FFEF"/>
</linearGradient>
<linearGradient id="paint9_linear_400_1428" x1="437.189" y1="871.127" x2="437.189" y2="-77.0589" gradientUnits="userSpaceOnUse">
<stop stop-color="white"/>
<stop offset="1" stop-color="#38FFEF"/>
</linearGradient>
<linearGradient id="paint10_linear_400_1428" x1="473.164" y1="879.002" x2="473.164" y2="-69.184" gradientUnits="userSpaceOnUse">
<stop stop-color="white"/>
<stop offset="1" stop-color="#38FFEF"/>
</linearGradient>
<linearGradient id="paint11_linear_400_1428" x1="509.168" y1="886.88" x2="509.168" y2="-61.3061" gradientUnits="userSpaceOnUse">
<stop stop-color="white"/>
<stop offset="1" stop-color="#38FFEF"/>
</linearGradient>
<linearGradient id="paint12_linear_400_1428" x1="545.155" y1="894.769" x2="545.155" y2="-53.4169" gradientUnits="userSpaceOnUse">
<stop stop-color="white"/>
<stop offset="1" stop-color="#38FFEF"/>
</linearGradient>
<linearGradient id="paint13_linear_400_1428" x1="581.145" y1="902.644" x2="581.145" y2="-45.542" gradientUnits="userSpaceOnUse">
<stop stop-color="white"/>
<stop offset="1" stop-color="#38FFEF"/>
</linearGradient>
<linearGradient id="paint14_linear_400_1428" x1="617.135" y1="910.519" x2="617.135" y2="-37.6671" gradientUnits="userSpaceOnUse">
<stop stop-color="white"/>
<stop offset="1" stop-color="#38FFEF"/>
</linearGradient>
<linearGradient id="paint15_linear_400_1428" x1="653.125" y1="918.397" x2="653.125" y2="-29.789" gradientUnits="userSpaceOnUse">
<stop stop-color="white"/>
<stop offset="1" stop-color="#38FFEF"/>
</linearGradient>
<linearGradient id="paint16_linear_400_1428" x1="689.115" y1="926.272" x2="689.115" y2="-21.914" gradientUnits="userSpaceOnUse">
<stop stop-color="white"/>
<stop offset="1" stop-color="#38FFEF"/>
</linearGradient>
<linearGradient id="paint17_linear_400_1428" x1="725.091" y1="934.147" x2="725.091" y2="-14.0245" gradientUnits="userSpaceOnUse">
<stop stop-color="white"/>
<stop offset="1" stop-color="#38FFEF"/>
</linearGradient>
<linearGradient id="paint18_linear_400_1428" x1="761.08" y1="942.036" x2="761.081" y2="-6.14967" gradientUnits="userSpaceOnUse">
<stop stop-color="white"/>
<stop offset="1" stop-color="#38FFEF"/>
</linearGradient>
<clipPath id="clip0_400_1428">
<rect width="875" height="359" fill="white"/>
</clipPath>
</defs>
</svg>
