<svg width="282" height="166" viewBox="0 0 282 166" fill="none" xmlns="http://www.w3.org/2000/svg">
<g clip-path="url(#clip0_556_1888)">
<path d="M105.467 -66.4273L96.2913 -68.436L0.713958 367.994L9.89019 370.003L105.467 -66.4273Z" fill="url(#paint0_linear_556_1888)"/>
<path d="M122.104 -62.7856L112.928 -64.7943L17.3504 371.636L26.5267 373.645L122.104 -62.7856Z" fill="url(#paint1_linear_556_1888)"/>
<path d="M138.747 -59.144L129.571 -61.1526L33.9937 375.278L43.17 377.286L138.747 -59.144Z" fill="url(#paint2_linear_556_1888)"/>
<path d="M155.384 -55.5023L146.208 -57.511L50.6302 378.919L59.8065 380.928L155.384 -55.5023Z" fill="url(#paint3_linear_556_1888)"/>
<path d="M172.027 -51.8539L162.851 -53.8626L67.2735 382.567L76.4497 384.576L172.027 -51.8539Z" fill="url(#paint4_linear_556_1888)"/>
<path d="M188.677 -48.2108L179.501 -50.2195L83.9235 386.211L93.0997 388.219L188.677 -48.2108Z" fill="url(#paint5_linear_556_1888)"/>
<path d="M205.312 -44.5626L196.136 -46.5713L100.559 389.859L109.735 391.867L205.312 -44.5626Z" fill="url(#paint6_linear_556_1888)"/>
<path d="M221.955 -40.9209L212.779 -42.9296L117.202 393.501L126.378 395.509L221.955 -40.9209Z" fill="url(#paint7_linear_556_1888)"/>
<path d="M238.592 -37.2793L229.416 -39.288L133.838 397.142L143.015 399.151L238.592 -37.2793Z" fill="url(#paint8_linear_556_1888)"/>
<path d="M255.235 -33.6376L246.059 -35.6463L150.482 400.784L159.658 402.792L255.235 -33.6376Z" fill="url(#paint9_linear_556_1888)"/>
<path d="M271.872 -29.9959L262.696 -32.0046L167.118 404.426L176.294 406.434L271.872 -29.9959Z" fill="url(#paint10_linear_556_1888)"/>
<path d="M288.515 -26.3543L279.339 -28.363L183.761 408.067L192.938 410.076L288.515 -26.3543Z" fill="url(#paint11_linear_556_1888)"/>
<path d="M305.158 -22.7126L295.982 -24.7213L200.405 411.709L209.581 413.718L305.158 -22.7126Z" fill="url(#paint12_linear_556_1888)"/>
<path d="M321.801 -19.0696L312.625 -21.0782L217.048 415.352L226.224 417.361L321.801 -19.0696Z" fill="url(#paint13_linear_556_1888)"/>
<path d="M338.445 -15.4279L329.269 -17.4366L233.691 418.994L242.867 421.002L338.445 -15.4279Z" fill="url(#paint14_linear_556_1888)"/>
<path d="M355.081 -11.7862L345.905 -13.7949L250.328 422.635L259.504 424.644L355.081 -11.7862Z" fill="url(#paint15_linear_556_1888)"/>
<path d="M371.725 -8.14457L362.548 -10.1533L266.971 426.277L276.147 428.286L371.725 -8.14457Z" fill="url(#paint16_linear_556_1888)"/>
</g>
<defs>
<linearGradient id="paint0_linear_556_1888" x1="53.0796" y1="370.01" x2="53.0796" y2="-68.4266" gradientUnits="userSpaceOnUse">
<stop stop-color="white"/>
<stop offset="1" stop-color="#38FFEF"/>
</linearGradient>
<linearGradient id="paint1_linear_556_1888" x1="69.713" y1="373.658" x2="69.713" y2="-64.7786" gradientUnits="userSpaceOnUse">
<stop stop-color="white"/>
<stop offset="1" stop-color="#38FFEF"/>
</linearGradient>
<linearGradient id="paint2_linear_556_1888" x1="86.3546" y1="377.3" x2="86.3546" y2="-61.1374" gradientUnits="userSpaceOnUse">
<stop stop-color="white"/>
<stop offset="1" stop-color="#38FFEF"/>
</linearGradient>
<linearGradient id="paint3_linear_556_1888" x1="102.996" y1="380.942" x2="102.996" y2="-57.4946" gradientUnits="userSpaceOnUse">
<stop stop-color="white"/>
<stop offset="1" stop-color="#38FFEF"/>
</linearGradient>
<linearGradient id="paint4_linear_556_1888" x1="119.638" y1="384.59" x2="119.638" y2="-53.8466" gradientUnits="userSpaceOnUse">
<stop stop-color="white"/>
<stop offset="1" stop-color="#38FFEF"/>
</linearGradient>
<linearGradient id="paint5_linear_556_1888" x1="136.286" y1="388.232" x2="136.286" y2="-50.2052" gradientUnits="userSpaceOnUse">
<stop stop-color="white"/>
<stop offset="1" stop-color="#38FFEF"/>
</linearGradient>
<linearGradient id="paint6_linear_556_1888" x1="152.921" y1="391.873" x2="152.921" y2="-46.5572" gradientUnits="userSpaceOnUse">
<stop stop-color="white"/>
<stop offset="1" stop-color="#38FFEF"/>
</linearGradient>
<linearGradient id="paint7_linear_556_1888" x1="169.569" y1="395.523" x2="169.569" y2="-42.9144" gradientUnits="userSpaceOnUse">
<stop stop-color="white"/>
<stop offset="1" stop-color="#38FFEF"/>
</linearGradient>
<linearGradient id="paint8_linear_556_1888" x1="186.204" y1="399.164" x2="186.204" y2="-39.2731" gradientUnits="userSpaceOnUse">
<stop stop-color="white"/>
<stop offset="1" stop-color="#38FFEF"/>
</linearGradient>
<linearGradient id="paint9_linear_556_1888" x1="202.846" y1="402.805" x2="202.846" y2="-35.6317" gradientUnits="userSpaceOnUse">
<stop stop-color="white"/>
<stop offset="1" stop-color="#38FFEF"/>
</linearGradient>
<linearGradient id="paint10_linear_556_1888" x1="219.481" y1="406.447" x2="219.481" y2="-31.9904" gradientUnits="userSpaceOnUse">
<stop stop-color="white"/>
<stop offset="1" stop-color="#38FFEF"/>
</linearGradient>
<linearGradient id="paint11_linear_556_1888" x1="236.129" y1="410.089" x2="236.129" y2="-28.3477" gradientUnits="userSpaceOnUse">
<stop stop-color="white"/>
<stop offset="1" stop-color="#38FFEF"/>
</linearGradient>
<linearGradient id="paint12_linear_556_1888" x1="252.769" y1="413.737" x2="252.769" y2="-24.6997" gradientUnits="userSpaceOnUse">
<stop stop-color="white"/>
<stop offset="1" stop-color="#38FFEF"/>
</linearGradient>
<linearGradient id="paint13_linear_556_1888" x1="269.411" y1="417.379" x2="269.411" y2="-21.0584" gradientUnits="userSpaceOnUse">
<stop stop-color="white"/>
<stop offset="1" stop-color="#38FFEF"/>
</linearGradient>
<linearGradient id="paint14_linear_556_1888" x1="286.052" y1="421.02" x2="286.052" y2="-17.4171" gradientUnits="userSpaceOnUse">
<stop stop-color="white"/>
<stop offset="1" stop-color="#38FFEF"/>
</linearGradient>
<linearGradient id="paint15_linear_556_1888" x1="302.694" y1="424.663" x2="302.694" y2="-13.7743" gradientUnits="userSpaceOnUse">
<stop stop-color="white"/>
<stop offset="1" stop-color="#38FFEF"/>
</linearGradient>
<linearGradient id="paint16_linear_556_1888" x1="319.335" y1="428.304" x2="319.335" y2="-10.133" gradientUnits="userSpaceOnUse">
<stop stop-color="white"/>
<stop offset="1" stop-color="#38FFEF"/>
</linearGradient>
<clipPath id="clip0_556_1888">
<rect width="405.317" height="166" fill="white"/>
</clipPath>
</defs>
</svg>
