<svg width="1137" height="384" viewBox="0 0 1137 384" fill="none" xmlns="http://www.w3.org/2000/svg">
<g clip-path="url(#clip0_400_1137)">
<path d="M771.555 -159.51L590.92 661.468L608.263 665.247L788.898 -155.731L771.555 -159.51Z" fill="white" fill-opacity="0.11"/>
<path d="M803.015 -152.651L622.379 668.327L639.722 672.105L820.357 -148.872L803.015 -152.651Z" fill="white" fill-opacity="0.11"/>
<path d="M834.462 -145.792L653.827 675.186L671.169 678.964L851.804 -142.014L834.462 -145.792Z" fill="white" fill-opacity="0.11"/>
<path d="M865.908 -138.946L685.273 682.032L702.616 685.811L883.251 -135.167L865.908 -138.946Z" fill="white" fill-opacity="0.11"/>
<path d="M897.368 -132.084L716.733 688.893L734.076 692.672L914.711 -128.306L897.368 -132.084Z" fill="white" fill-opacity="0.11"/>
<path d="M928.818 -125.238L748.182 695.74L765.525 699.518L946.16 -121.459L928.818 -125.238Z" fill="white" fill-opacity="0.11"/>
<path d="M960.265 -118.392L779.63 702.586L796.972 706.365L977.608 -114.613L960.265 -118.392Z" fill="white" fill-opacity="0.11"/>
<path d="M991.712 -111.533L811.077 709.445L828.42 713.223L1009.05 -107.755L991.712 -111.533Z" fill="white" fill-opacity="0.11"/>
<path d="M1023.16 -104.687L842.524 716.291L859.867 720.069L1040.5 -100.908L1023.16 -104.687Z" fill="white" fill-opacity="0.11"/>
<path d="M1054.61 -97.8281L873.971 723.15L891.314 726.928L1071.95 -94.0495L1054.61 -97.8281Z" fill="white" fill-opacity="0.11"/>
<path d="M1086.05 -90.9695L905.418 730.008L922.761 733.787L1103.4 -87.1909L1086.05 -90.9695Z" fill="white" fill-opacity="0.11"/>
<path d="M1117.5 -84.1233L936.865 736.855L954.207 740.633L1134.84 -80.3447L1117.5 -84.1233Z" fill="white" fill-opacity="0.11"/>
<path d="M1148.95 -77.2646L968.312 743.713L985.654 747.492L1166.29 -73.486L1148.95 -77.2646Z" fill="white" fill-opacity="0.11"/>
<path d="M1180.41 -70.4055L999.772 750.572L1017.11 754.351L1197.75 -66.6269L1180.41 -70.4055Z" fill="white" fill-opacity="0.11"/>
<path d="M1211.86 -63.5719L1031.22 757.406L1048.56 761.184L1229.2 -59.7933L1211.86 -63.5719Z" fill="white" fill-opacity="0.11"/>
<path d="M1243.32 -56.7105L1062.68 764.267L1080.02 768.046L1260.66 -52.932L1243.32 -56.7105Z" fill="white" fill-opacity="0.11"/>
<path d="M1274.76 -49.8516L1094.13 771.126L1111.47 774.905L1292.11 -46.073L1274.76 -49.8516Z" fill="white" fill-opacity="0.11"/>
<path d="M1306.21 -43.0056L1125.58 777.972L1142.92 781.751L1323.55 -39.227L1306.21 -43.0056Z" fill="white" fill-opacity="0.11"/>
<path d="M170.425 -290.487L-10.21 530.491L7.13256 534.27L187.768 -286.708L170.425 -290.487Z" fill="white" fill-opacity="0.11"/>
<path d="M201.872 -283.64L21.2369 537.337L38.5795 541.116L219.215 -279.862L201.872 -283.64Z" fill="white" fill-opacity="0.11"/>
<path d="M233.322 -276.794L52.6869 544.184L70.0294 547.962L250.665 -273.015L233.322 -276.794Z" fill="white" fill-opacity="0.11"/>
<path d="M264.769 -269.935L84.1338 551.043L101.476 554.821L282.112 -266.157L264.769 -269.935Z" fill="white" fill-opacity="0.11"/>
<path d="M296.229 -263.086L115.593 557.891L132.936 561.67L313.571 -259.308L296.229 -263.086Z" fill="white" fill-opacity="0.11"/>
<path d="M327.676 -256.228L147.041 564.75L164.383 568.529L345.018 -252.449L327.676 -256.228Z" fill="white" fill-opacity="0.11"/>
<path d="M359.136 -249.381L178.5 571.596L195.843 575.375L376.478 -245.603L359.136 -249.381Z" fill="white" fill-opacity="0.11"/>
<path d="M390.583 -242.523L209.947 578.455L227.29 582.234L407.925 -238.744L390.583 -242.523Z" fill="white" fill-opacity="0.11"/>
<path d="M422.03 -235.664L241.394 585.314L258.737 589.093L439.372 -231.885L422.03 -235.664Z" fill="white" fill-opacity="0.11"/>
<path d="M453.476 -228.818L272.841 592.16L290.184 595.939L470.819 -225.039L453.476 -228.818Z" fill="white" fill-opacity="0.11"/>
<path d="M484.926 -221.971L304.291 599.007L321.634 602.785L502.269 -218.193L484.926 -221.971Z" fill="white" fill-opacity="0.11"/>
<path d="M516.374 -215.112L335.738 605.865L353.081 609.644L533.716 -211.334L516.374 -215.112Z" fill="white" fill-opacity="0.11"/>
<path d="M547.821 -208.266L367.186 612.712L384.528 616.49L565.163 -204.488L547.821 -208.266Z" fill="white" fill-opacity="0.11"/>
<path d="M579.268 -201.408L398.632 619.57L415.975 623.349L596.61 -197.629L579.268 -201.408Z" fill="white" fill-opacity="0.11"/>
<path d="M610.715 -194.549L430.08 626.429L447.422 630.208L628.057 -190.77L610.715 -194.549Z" fill="white" fill-opacity="0.11"/>
<path d="M642.174 -187.7L461.539 633.278L478.881 637.057L659.517 -183.921L642.174 -187.7Z" fill="white" fill-opacity="0.11"/>
<path d="M673.622 -180.841L492.986 640.137L510.329 643.915L690.964 -177.063L673.622 -180.841Z" fill="white" fill-opacity="0.11"/>
<path d="M705.068 -173.995L524.433 646.983L541.775 650.761L722.41 -170.216L705.068 -173.995Z" fill="white" fill-opacity="0.11"/>
<path d="M736.531 -167.148L555.895 653.829L573.238 657.608L753.873 -163.37L736.531 -167.148Z" fill="white" fill-opacity="0.11"/>
</g>
<defs>
<clipPath id="clip0_400_1137">
<rect width="1137" height="384" fill="white"/>
</clipPath>
</defs>
</svg>
