<svg width="350" height="384" viewBox="0 0 350 384" fill="none" xmlns="http://www.w3.org/2000/svg">
<g clip-path="url(#clip0_490_2094)">
<path d="M170.425 -290.487L-10.21 530.491L7.13256 534.27L187.768 -286.708L170.425 -290.487Z" fill="white" fill-opacity="0.11"/>
<path d="M201.872 -283.64L21.2371 537.337L38.5796 541.116L219.215 -279.862L201.872 -283.64Z" fill="white" fill-opacity="0.11"/>
<path d="M233.322 -276.794L52.6868 544.184L70.0293 547.962L250.665 -273.015L233.322 -276.794Z" fill="white" fill-opacity="0.11"/>
<path d="M264.769 -269.935L84.1338 551.043L101.476 554.821L282.112 -266.157L264.769 -269.935Z" fill="white" fill-opacity="0.11"/>
<path d="M296.229 -263.086L115.593 557.891L132.936 561.67L313.571 -259.308L296.229 -263.086Z" fill="white" fill-opacity="0.11"/>
<path d="M327.676 -256.228L147.041 564.75L164.383 568.529L345.018 -252.449L327.676 -256.228Z" fill="white" fill-opacity="0.11"/>
<path d="M359.136 -249.381L178.5 571.596L195.843 575.375L376.478 -245.603L359.136 -249.381Z" fill="white" fill-opacity="0.11"/>
<path d="M390.583 -242.523L209.947 578.455L227.29 582.234L407.925 -238.744L390.583 -242.523Z" fill="white" fill-opacity="0.11"/>
<path d="M422.03 -235.664L241.394 585.314L258.737 589.093L439.372 -231.885L422.03 -235.664Z" fill="white" fill-opacity="0.11"/>
<path d="M453.476 -228.818L272.841 592.16L290.184 595.939L470.819 -225.039L453.476 -228.818Z" fill="white" fill-opacity="0.11"/>
<path d="M484.926 -221.971L304.291 599.007L321.634 602.785L502.269 -218.193L484.926 -221.971Z" fill="white" fill-opacity="0.11"/>
<path d="M516.374 -215.112L335.738 605.865L353.081 609.644L533.716 -211.334L516.374 -215.112Z" fill="white" fill-opacity="0.11"/>
</g>
<defs>
<clipPath id="clip0_490_2094">
<rect width="1137" height="384" fill="white"/>
</clipPath>
</defs>
</svg>
